<?xml version="1.0" standalone="no"?>
<!DOCTYPE svg PUBLIC "-//W3C//DTD SVG 20010904//EN"
 "http://www.w3.org/TR/2001/REC-SVG-20010904/DTD/svg10.dtd">
<svg version="1.0" xmlns="http://www.w3.org/2000/svg"
 width="460.000000pt" height="506.000000pt" viewBox="0 0 460.000000 506.000000"
 preserveAspectRatio="xMidYMid meet">

<g transform="translate(0.000000,506.000000) scale(0.100000,-0.100000)"
fill="#000000" stroke="none">
<path d="M265 5051 c3 -6 40 -27 82 -47 75 -36 76 -36 111 -20 24 12 38 14 45
7 14 -14 4 -23 -56 -55 -55 -30 -73 -32 -81 -11 -6 18 -67 20 -83 4 -9 -9 -20
-8 -44 3 -34 17 -77 10 -110 -19 -10 -8 -26 -12 -41 -8 -16 4 -31 0 -47 -14
-13 -12 -28 -21 -33 -21 -4 0 -8 -34 -8 -75 0 -73 1 -75 25 -75 13 0 40 -13
58 -30 19 -16 44 -30 56 -30 28 0 27 -16 -1 -24 -15 -3 -27 0 -34 9 -6 8 -32
19 -58 24 l-46 8 0 -148 0 -148 35 6 c20 3 41 1 49 -6 25 -21 88 -10 117 20
30 31 45 85 26 93 -12 4 29 45 46 46 16 0 19 -32 3 -49 -15 -16 -14 -20 11
-54 16 -20 38 -40 51 -43 30 -8 28 -30 -7 -65 -26 -26 -33 -28 -55 -18 -20 9
-29 9 -41 -1 -23 -19 -18 -27 21 -35 26 -4 41 -2 53 9 10 9 27 16 39 16 11 0
33 11 49 24 34 28 73 42 73 26 0 -23 -21 -50 -39 -50 -14 0 -18 -5 -14 -20 3
-11 12 -20 19 -20 8 0 14 -4 14 -10 0 -5 -9 -10 -19 -10 -11 0 -23 -9 -26 -21
-6 -19 -8 -19 -24 -5 -16 15 -61 23 -61 11 0 -16 35 -55 48 -55 12 0 11 -4 -6
-16 -18 -12 -26 -13 -37 -4 -8 7 -15 9 -15 4 0 -4 -11 3 -24 15 -26 25 -56 21
-36 -5 7 -7 17 -12 23 -11 15 3 9 -35 -6 -45 -7 -4 -16 -3 -21 2 -6 6 -19 10
-29 10 -10 0 -21 9 -24 20 -6 21 -24 24 -58 11 -18 -7 -18 -8 -1 -18 20 -11
19 -54 -3 -61 -9 -3 -11 2 -6 17 5 18 1 21 -35 27 l-41 7 22 23 c22 24 20 28
-13 25 -9 -1 -19 3 -22 8 -4 6 -13 8 -21 4 -11 -4 -15 -21 -15 -59 0 -51 1
-54 19 -44 21 11 81 3 81 -11 0 -5 -11 -9 -24 -9 -12 0 -35 -11 -50 -25 l-26
-24 0 -556 c0 -487 2 -555 15 -555 8 0 15 -4 15 -10 0 -5 -7 -10 -15 -10 -13
0 -15 -35 -15 -252 0 -186 3 -249 11 -241 7 7 26 9 46 6 33 -6 35 -4 28 16 -4
12 -2 21 4 21 6 0 11 11 11 23 0 26 50 77 75 77 20 0 19 -5 -8 -33 -62 -68
-65 -73 -56 -90 6 -9 16 -17 23 -17 8 0 19 -7 26 -15 10 -12 9 -16 -6 -22 -11
-3 -23 -13 -27 -20 -8 -12 -11 -12 -25 0 -10 8 -36 17 -59 20 l-43 5 0 -1179
0 -1179 1725 0 1725 0 -1 28 -1 27 -8 -25 -8 -25 -1 28 c-1 21 4 27 19 27 15
0 22 -9 27 -30 l6 -30 558 0 559 0 0 1250 c0 1326 2 1257 -43 1264 -8 1 -22 7
-30 14 -11 10 -23 5 -61 -23 -46 -36 -60 -65 -30 -65 17 0 94 -59 94 -72 0
-16 -37 -8 -55 12 -10 11 -24 20 -32 20 -7 0 -18 11 -23 25 -11 30 -31 32 -54
6 -10 -11 -23 -18 -29 -15 -18 7 -40 -36 -43 -85 -3 -42 -15 -61 -41 -61 -15
0 -17 16 -3 25 17 11 11 23 -12 27 l-23 3 23 21 c18 16 21 28 16 48 -4 19 -2
26 9 26 8 0 20 7 27 15 10 12 9 16 -4 21 -9 3 -16 15 -16 25 0 17 -3 18 -21 9
-17 -10 -21 -8 -26 9 -6 25 -7 25 -44 4 -22 -13 -32 -14 -40 -6 -8 8 -18 9
-31 2 -23 -12 -23 -35 -1 -43 48 -19 -63 -40 -127 -25 -8 2 -19 -6 -25 -19 -8
-20 -15 -23 -42 -18 -18 2 -35 1 -38 -4 -7 -12 -69 -9 -77 3 -4 6 -1 25 7 43
11 28 11 33 -1 38 -21 8 -17 33 6 39 21 6 25 23 10 47 -7 12 -13 9 -35 -14
-24 -26 -28 -27 -47 -14 -30 20 -34 38 -10 45 11 3 19 10 16 16 -3 8 -26 11
-67 9 -47 -3 -66 0 -76 12 -10 12 -7 16 26 25 21 6 50 11 66 11 39 0 33 17
-10 27 -30 7 -38 14 -37 31 0 12 -2 22 -5 23 -3 0 -18 2 -33 4 -24 3 -28 0
-28 -21 0 -13 -4 -24 -10 -24 -5 0 -10 -8 -10 -17 -1 -14 -6 -12 -25 10 -22
25 -26 55 -6 43 4 -3 12 -1 19 3 9 5 9 12 -2 26 -11 16 -17 17 -29 7 -8 -7
-21 -10 -29 -7 -22 9 -81 112 -82 145 -1 34 -1 34 -27 20 -16 -9 -19 -7 -19
10 0 18 11 25 34 21 5 -1 6 4 3 12 -6 17 12 40 46 54 19 9 27 20 27 38 0 22 3
25 20 20 12 -4 27 -1 35 5 12 10 15 10 15 -1 0 -8 -9 -20 -20 -27 -11 -7 -20
-19 -20 -27 0 -9 -6 -12 -15 -9 -11 5 -13 2 -9 -10 3 -9 1 -16 -4 -16 -6 0
-18 -14 -26 -31 l-16 -31 38 7 c20 4 41 13 45 21 11 19 57 18 72 -3 13 -18 35
-10 35 13 0 11 12 6 41 -17 32 -25 43 -29 49 -18 7 11 12 10 28 -4 10 -9 22
-17 26 -17 4 0 16 -10 26 -22 15 -19 20 -20 34 -9 14 12 19 11 36 -4 10 -9 24
-14 30 -10 8 5 5 12 -9 22 -27 18 -27 33 -1 33 12 0 20 -7 20 -17 0 -9 3 -14
6 -10 3 3 19 1 35 -5 22 -7 33 -7 44 2 12 10 22 7 51 -15 33 -25 41 -27 73
-19 47 12 81 7 81 -13 0 -9 3 -13 7 -10 3 4 12 2 20 -5 11 -9 17 -6 30 12 13
18 22 21 53 17 32 -4 39 -2 44 15 3 15 11 19 25 15 29 -7 27 17 -4 37 -20 13
-26 13 -32 3 -12 -21 -51 -27 -64 -11 -7 8 -18 13 -25 10 -7 -3 -16 -1 -19 4
-4 6 -15 10 -26 10 -18 0 -20 4 -14 30 6 29 -8 44 -18 18 -3 -10 -9 -10 -24
-1 -13 7 -24 8 -30 2 -6 -6 -18 0 -33 16 -30 32 -38 32 -42 -2 -5 -43 -32 -36
-36 10 -2 20 -6 37 -9 37 -9 0 -49 -46 -56 -64 -4 -9 -16 -16 -28 -16 -15 0
-19 4 -15 16 3 9 6 18 6 20 0 2 7 4 16 4 8 0 13 4 9 10 -5 9 -15 10 -92 10
-27 0 -30 3 -26 20 5 19 2 20 -23 14 -41 -10 -46 -13 -39 -35 4 -10 3 -19 -2
-20 -4 0 -19 -2 -33 -4 -36 -5 -60 4 -60 21 0 15 11 14 58 -3 17 -7 15 7 -5
30 -17 19 -17 20 10 15 37 -7 35 15 -3 29 -16 6 -30 18 -30 27 0 9 -7 16 -15
16 -8 0 -15 -7 -15 -15 0 -8 7 -15 15 -15 8 0 15 -7 15 -16 0 -11 -5 -14 -16
-10 -9 3 -22 6 -30 6 -8 0 -13 9 -11 22 1 15 -5 26 -20 33 -13 5 -23 17 -23
26 0 23 -24 41 -44 33 -10 -4 -22 0 -30 11 -12 17 -14 17 -28 -4 -9 -13 -21
-19 -30 -16 -9 4 -18 -1 -21 -9 -4 -9 -12 -16 -19 -16 -6 0 -25 -12 -40 -27
-15 -15 -28 -21 -28 -15 0 19 4 27 14 24 6 -2 46 34 46 43 0 0 -16 -1 -35 -3
-19 -2 -35 0 -35 6 0 5 -11 13 -25 16 -14 4 -25 11 -25 16 0 14 27 12 33 -2 3
-8 6 -6 6 4 1 17 67 58 92 58 7 0 23 -10 36 -22 l23 -21 0 21 c0 12 5 22 11
22 6 0 9 -9 6 -20 -3 -11 0 -20 6 -20 14 0 67 64 67 79 0 6 4 11 8 11 4 0 6
-15 4 -34 -5 -41 13 -77 33 -70 9 4 18 -1 21 -11 6 -15 22 -17 128 -14 78 1
131 -2 151 -10 23 -10 37 -9 71 2 37 12 45 12 58 -1 22 -22 176 -17 230 8 37
17 43 17 70 3 24 -12 34 -13 49 -4 14 9 37 9 95 1 42 -7 85 -16 94 -21 10 -5
20 -9 23 -9 3 0 5 423 5 940 l0 940 -1922 -1 -1923 0 43 -22 c38 -19 54 -47
21 -38 -8 2 -21 4 -29 5 -8 1 -24 6 -35 12 -11 6 -40 12 -65 13 -26 1 -50 8
-56 16 -14 18 -47 19 -74 3 -15 -10 -24 -10 -38 -1 -24 14 -266 18 -257 4z
m190 -20 c-3 -6 -14 -11 -23 -11 -15 1 -15 2 2 15 21 16 32 13 21 -4z m105
-32 c0 -28 60 -52 110 -44 42 7 65 -11 36 -27 -9 -5 -16 -15 -16 -22 0 -13
-56 -25 -137 -29 -18 -1 -38 -8 -44 -14 -7 -7 -11 -13 -8 -13 2 -1 32 -2 67
-3 48 -1 67 -6 77 -20 7 -10 19 -15 28 -11 23 8 116 -13 133 -31 9 -8 28 -15
43 -15 25 0 51 -15 51 -31 0 -3 -29 -9 -65 -12 -73 -7 -132 7 -115 28 12 14 3
26 -16 18 -17 -6 -84 15 -105 34 -21 18 -66 7 -74 -18 -7 -22 -59 -26 -100 -7
-21 10 -32 7 -74 -15 -53 -29 -61 -32 -61 -18 0 16 31 42 41 35 18 -11 39 18
39 52 0 39 1 39 41 18 16 -8 39 -12 49 -9 24 7 26 37 5 55 -23 19 -8 30 40 30
54 0 64 13 37 50 -21 28 -20 40 5 40 7 0 13 -9 13 -21z m248 -51 c-6 -16 -36
-34 -44 -26 -3 4 -4 14 -1 23 7 17 51 21 45 3z m2676 -7 c7 -10 -18 -34 -27
-25 -7 8 3 34 13 34 5 0 11 -4 14 -9z m-2490 -26 c4 -11 -3 -19 -21 -26 -38
-14 -52 -8 -42 19 10 26 54 31 63 7z m1292 -9 c3 -7 22 -17 42 -20 20 -4 50
-17 67 -31 29 -24 29 -25 10 -39 -29 -22 -12 -19 29 5 20 12 36 27 36 34 0 16
27 27 35 14 4 -5 -1 -12 -9 -15 -9 -3 -16 -14 -16 -25 0 -10 -12 -30 -27 -44
-20 -18 -23 -25 -12 -25 9 0 24 -9 34 -20 15 -16 15 -22 5 -35 -16 -20 -30
-19 -30 1 0 12 -7 15 -24 12 -18 -4 -26 0 -29 14 -4 13 -14 18 -40 18 -33 0
-64 20 -50 33 11 12 -16 8 -36 -5 -10 -6 -27 -8 -37 -4 -17 7 -16 10 11 33 21
18 24 23 10 18 -53 -18 -75 -17 -82 1 -4 10 -2 19 5 22 7 2 12 10 12 17 0 7
17 22 38 33 47 24 51 25 58 8z m-1389 -12 c4 -12 -45 -29 -55 -20 -2 3 1 13 8
21 14 17 41 17 47 -1z m3331 4 c-6 -18 -28 -21 -28 -4 0 9 7 16 16 16 9 0 14
-5 12 -12z m-4038 -38 c0 -5 -4 -10 -10 -10 -5 0 -10 5 -10 10 0 6 5 10 10 10
6 0 10 -4 10 -10z m2457 -6 c-3 -3 -12 -4 -19 -1 -8 3 -5 6 6 6 11 1 17 -2 13
-5z m-1807 -45 c0 -5 -7 -9 -15 -9 -15 0 -20 12 -9 23 8 8 24 -1 24 -14z m178
-45 c-2 -15 -9 -29 -15 -32 -19 -6 -27 26 -14 55 15 33 34 18 29 -23z m-812
11 c5 -12 15 -14 43 -9 34 6 35 5 16 -10 -11 -8 -26 -16 -32 -16 -7 0 -22 -9
-33 -20 -38 -38 -50 -21 -29 39 12 34 26 40 35 16z m368 -1 c8 -21 -38 -66
-59 -58 -21 9 -19 22 6 29 11 4 18 13 15 20 -2 7 -2 16 1 19 12 11 31 6 37
-10z m562 -26 c-3 -18 -10 -36 -15 -41 -11 -11 -61 2 -61 16 0 18 43 57 63 57
17 0 19 -5 13 -32z m1580 12 c6 -6 30 -11 55 -13 37 -2 44 -5 44 -22 0 -11 4
-26 8 -33 5 -8 4 -19 -3 -27 -14 -17 -20 -18 -40 -5 -12 7 -11 12 5 30 14 15
16 23 7 32 -8 8 -20 5 -44 -14 -18 -13 -42 -28 -53 -33 -18 -7 -18 -9 -2 -12
20 -5 21 -13 5 -48 -18 -40 -45 -31 -39 13 1 8 -2 19 -8 26 -6 6 -9 22 -8 34
1 16 6 21 19 16 15 -4 18 1 18 30 0 36 15 47 36 26z m-458 -32 c-6 -18 -28
-21 -28 -4 0 9 7 16 16 16 9 0 14 -5 12 -12z m372 2 c0 -5 -7 -10 -15 -10 -8
0 -15 -6 -15 -14 0 -8 7 -16 15 -20 27 -10 17 -29 -12 -22 -16 4 -35 8 -43 10
-8 1 -16 12 -18 22 -2 14 6 22 30 30 45 15 58 16 58 4z m-1150 -9 c0 -5 -6
-14 -14 -20 -12 -10 -13 -8 -9 8 5 21 23 30 23 12z m-1050 -53 c0 -5 -9 -3
-20 4 -11 7 -20 16 -20 20 0 5 9 3 20 -4 11 -7 20 -16 20 -20z m275 21 c-4 -5
-12 -9 -20 -9 -16 0 -25 -22 -26 -68 l-1 -37 -12 35 c-10 26 -19 36 -39 38
-30 4 -31 6 -18 30 7 12 24 18 65 19 33 1 54 -2 51 -8z m95 -5 c0 -11 -8 -14
-27 -12 -39 4 -42 28 -4 28 21 0 31 -5 31 -16z m1600 1 c0 -8 -9 -15 -20 -15
-22 0 -27 15 -7 23 21 9 27 7 27 -8z m-2083 -15 c-4 -16 -2 -18 13 -10 10 6
23 10 29 10 13 0 14 -39 2 -59 -8 -12 -15 -9 -40 15 -33 31 -41 64 -15 64 11
0 15 -6 11 -20z m1263 -10 c0 -5 -4 -10 -10 -10 -5 0 -10 5 -10 10 0 6 5 10
10 10 6 0 10 -4 10 -10z m2085 1 c10 -18 -17 -23 -33 -7 -15 15 -15 16 5 16
12 0 24 -4 28 -9z m-1117 -61 c13 -16 29 -30 37 -30 8 0 15 -7 15 -15 0 -21
-27 -19 -57 5 -14 11 -32 20 -39 20 -14 0 -19 31 -7 43 13 14 30 6 51 -23z
m1172 10 c0 -5 -7 -10 -15 -10 -8 0 -15 5 -15 10 0 6 7 10 15 10 8 0 15 -4 15
-10z m-3280 -50 c0 -5 -4 -10 -10 -10 -5 0 -10 5 -10 10 0 6 5 10 10 10 6 0
10 -4 10 -10z m332 1 c17 -6 23 -16 23 -35 -2 -40 -11 -40 -39 -3 -37 48 -33
57 16 38z m2908 -36 c0 -8 -7 -15 -15 -15 -8 0 -15 7 -15 15 0 8 7 15 15 15 8
0 15 -7 15 -15z m-1010 -45 c0 -5 -4 -10 -10 -10 -5 0 -10 5 -10 10 0 6 5 10
10 10 6 0 10 -4 10 -10z m1084 -35 c3 -8 17 -15 31 -15 35 0 30 -34 -5 -38
-13 -2 -33 -10 -44 -18 -31 -21 -34 -18 -34 31 1 42 5 48 39 54 4 0 9 -6 13
-14z m-88 -5 c22 0 17 -27 -8 -45 -21 -14 -23 -14 -30 2 -13 33 -9 56 8 49 9
-3 22 -6 30 -6z m-1001 -29 c7 -12 -12 -24 -25 -16 -11 7 -4 25 10 25 5 0 11
-4 15 -9z m1289 -56 c13 -31 19 -35 41 -29 22 5 25 3 25 -22 0 -15 5 -41 11
-58 10 -28 8 -37 -20 -85 -30 -50 -31 -54 -14 -66 10 -7 15 -17 10 -21 -4 -4
0 -15 9 -25 15 -16 14 -19 -13 -33 -28 -14 -69 -7 -44 8 16 11 13 43 -5 50 -9
3 -27 6 -40 6 -28 0 -30 7 -7 32 9 10 12 18 7 18 -5 0 -18 7 -29 16 -20 15
-20 15 4 33 24 19 22 41 -5 41 -8 0 -14 7 -14 16 0 12 -6 15 -21 11 -14 -4
-29 2 -46 19 -23 23 -24 27 -10 41 14 14 19 14 49 -5 57 -37 76 -45 92 -39 20
8 9 45 -15 52 -20 7 -22 16 -13 53 9 33 32 27 48 -13z m-2943 -20 c0 -5 -14
-13 -31 -16 -18 -4 -37 -12 -43 -18 -12 -12 -37 -15 -37 -3 0 4 15 17 33 30
32 22 77 26 78 7z m852 -35 c-3 -11 -9 -20 -14 -20 -16 0 -23 32 -8 40 19 12
28 3 22 -20z m-1373 -10 c0 -5 -5 -10 -11 -10 -5 0 -7 5 -4 10 3 6 8 10 11 10
2 0 4 -4 4 -10z m40 -10 c0 -5 -4 -10 -10 -10 -5 0 -10 5 -10 10 0 6 5 10 10
10 6 0 10 -4 10 -10z m134 -39 c3 -4 27 -11 53 -15 77 -10 114 -27 111 -51 -2
-11 -12 -21 -23 -23 -11 -3 -17 -1 -13 3 10 10 -11 37 -23 29 -5 -3 -9 -15 -9
-28 0 -22 -17 -46 -32 -46 -4 0 -8 9 -8 21 0 11 -4 17 -10 14 -5 -3 -10 3 -10
15 0 27 -26 36 -49 16 -24 -22 -39 -20 -61 6 -17 21 -17 22 14 44 34 24 52 29
60 15z m1022 -38 c-10 -10 -19 5 -10 18 6 11 8 11 12 0 2 -7 1 -15 -2 -18z
m2124 -13 c0 -5 -4 -10 -10 -10 -5 0 -10 5 -10 10 0 6 5 10 10 10 6 0 10 -4
10 -10z m-3345 -61 c5 -23 3 -34 -12 -44 -17 -13 -17 -14 2 -29 14 -11 30 -13
50 -9 17 4 48 7 69 8 55 2 61 25 7 25 -46 0 -52 11 -19 34 15 11 25 12 34 6
13 -11 44 -3 44 11 0 5 9 9 20 9 26 0 26 -27 0 -35 -32 -10 -13 -24 25 -18 33
5 35 4 35 -22 0 -24 -3 -26 -26 -21 -38 10 -66 -2 -59 -24 3 -10 1 -21 -5 -25
-5 -3 -10 -15 -10 -26 0 -26 40 -40 95 -32 45 6 63 23 24 23 -12 0 -17 4 -14
11 10 15 66 8 93 -13 19 -14 27 -15 43 -5 11 7 17 18 14 25 -3 7 -1 10 5 7 5
-3 14 4 21 16 10 19 8 25 -12 40 -13 10 -33 19 -44 19 -20 0 -52 37 -41 47 7
7 76 -26 76 -36 0 -4 11 -13 25 -19 14 -6 25 -18 25 -27 0 -8 16 -21 35 -29
20 -9 35 -22 35 -31 0 -15 8 -16 53 -10 28 4 57 10 62 14 17 10 89 7 102 -5 9
-9 10 -26 1 -73 -11 -57 -14 -62 -34 -57 -16 4 -26 -1 -38 -19 -21 -32 -20
-47 5 -69 17 -14 26 -16 44 -8 16 7 26 7 33 0 8 -8 13 -7 18 5 12 33 23 16 21
-35 -2 -47 -5 -53 -34 -67 -18 -9 -33 -25 -35 -36 -2 -14 -10 -19 -26 -18 -16
2 -25 -4 -32 -22 -12 -32 -33 -32 -76 2 -31 23 -37 25 -50 11 -14 -13 -12 -17
10 -32 14 -9 26 -24 26 -32 0 -16 2 -16 47 3 23 9 25 -25 4 -46 -24 -24 -21
-62 7 -93 18 -22 55 -23 72 -4 6 8 17 13 25 10 15 -6 30 12 17 20 -5 3 -24 1
-43 -4 -24 -7 -40 -7 -55 1 -20 10 -20 13 -7 40 8 16 21 29 29 29 8 0 14 5 14
10 0 6 16 10 36 10 45 0 74 15 74 40 0 11 4 20 9 20 5 0 12 15 17 33 l8 32 3
-32 c5 -40 9 -40 35 -8 23 29 38 32 38 8 0 -23 29 -53 52 -53 10 0 18 -7 18
-15 0 -8 -9 -15 -19 -15 -21 0 -38 -30 -18 -31 9 0 9 -2 0 -6 -7 -2 -13 -13
-13 -23 0 -24 54 -44 82 -29 30 16 36 0 8 -21 -14 -11 -40 -20 -57 -20 -21 0
-33 -5 -33 -13 0 -16 57 -60 69 -53 10 7 23 -22 16 -34 -7 -11 15 -60 27 -60
4 0 8 -9 8 -20 0 -11 -4 -20 -10 -20 -5 0 -10 7 -10 15 0 8 -9 15 -21 15 -16
0 -19 -4 -14 -20 11 -35 -30 -60 -88 -54 -53 4 -78 -3 -56 -17 10 -6 8 -9 -9
-9 -19 0 -21 -4 -16 -25 4 -18 2 -25 -9 -25 -8 0 -17 7 -21 15 -3 8 -12 15
-21 15 -8 0 -15 7 -15 15 0 8 -6 15 -13 15 -20 0 -37 -22 -37 -47 0 -13 -4
-23 -10 -23 -10 0 -14 13 -11 37 1 7 -8 17 -20 24 -19 10 -25 8 -40 -12 l-19
-24 0 30 c0 27 -3 30 -32 30 -39 0 -48 -23 -24 -60 16 -25 16 -25 -18 -25 -18
0 -39 -7 -46 -15 -16 -19 -30 -19 -30 0 0 9 11 20 25 25 14 5 25 17 25 28 0
10 4 22 9 27 13 14 -5 54 -26 61 -10 3 -26 10 -35 15 -10 5 -33 9 -52 9 -27 0
-36 5 -41 21 -8 23 7 39 36 39 19 0 42 24 32 33 -3 4 -16 7 -28 7 -28 0 -53
25 -33 33 7 3 -2 8 -20 12 -22 5 -37 16 -43 32 -5 13 -19 37 -31 54 -21 29
-22 31 -6 43 24 18 42 66 28 80 -5 5 -10 20 -10 32 0 13 -4 26 -10 29 -5 3 -7
20 -3 37 4 23 3 29 -6 24 -6 -4 -18 -2 -26 4 -20 16 -46 70 -39 81 2 5 -4 14
-16 21 -11 7 -20 20 -20 28 0 68 -52 127 -95 109 -33 -13 -45 -10 -45 11 0 17
7 20 50 20 28 0 50 5 50 10 0 6 -5 10 -11 10 -6 0 -25 11 -42 24 -27 21 -35
22 -49 12 -13 -10 -15 -15 -6 -24 7 -7 8 -12 3 -13 -51 -4 -65 -4 -65 3 0 4 5
8 10 8 6 0 10 9 10 20 0 17 -5 19 -25 14 -17 -4 -27 -1 -31 9 -3 8 -15 18 -27
22 -15 4 -18 8 -9 12 8 3 19 0 25 -6 6 -6 19 -11 29 -11 22 0 25 35 4 43 -15
6 -11 47 5 47 5 0 9 9 9 20 0 32 28 23 35 -11z m2188 -9 c15 0 16 -3 7 -21 -9
-16 -8 -24 3 -37 8 -9 12 -23 10 -29 -3 -7 0 -13 6 -13 6 0 11 -5 11 -11 0 -5
-5 -7 -12 -3 -8 5 -9 2 -5 -9 8 -21 -11 -22 -38 -1 -19 14 -19 15 2 20 19 5
21 10 12 25 -5 10 -15 19 -22 19 -11 0 -37 44 -37 63 0 5 10 7 23 3 12 -3 30
-6 40 -6z m-2273 -24 c0 -15 -24 -28 -34 -19 -7 7 13 33 25 33 5 0 9 -6 9 -14z
m1990 4 c-8 -5 -23 -10 -33 -10 -13 0 -17 -5 -13 -18 5 -13 -1 -22 -16 -30
-20 -9 -20 -11 -4 -11 12 -1 16 -6 12 -16 -3 -8 -1 -15 4 -15 29 0 2 -21 -57
-46 -38 -15 -73 -33 -79 -41 -16 -19 -21 -16 -21 13 0 21 8 30 41 44 l41 19
-35 0 c-24 1 -31 4 -21 10 8 5 11 17 7 28 -5 16 2 23 36 37 24 10 54 24 68 32
29 16 94 20 70 4z m-1675 -90 c0 -22 -29 -18 -33 3 -3 14 1 18 15 15 10 -2 18
-10 18 -18z m575 0 c0 -12 -48 -25 -58 -16 -8 9 18 26 41 26 9 0 17 -4 17 -10z
m-990 -25 c10 -13 9 -15 -9 -15 -12 0 -21 6 -21 15 0 8 4 15 9 15 5 0 14 -7
21 -15z m118 -17 c2 -11 -6 -17 -30 -21 -18 -3 -43 -8 -55 -12 -18 -6 -23 -3
-23 9 0 9 7 16 15 16 8 0 14 3 14 8 -3 19 4 22 38 19 25 -1 39 -8 41 -19z
m2129 -10 c-3 -8 -6 -5 -6 6 -1 11 2 17 5 13 3 -3 4 -12 1 -19z m140 -4 c15
-4 15 -6 3 -14 -23 -15 -37 -12 -43 9 -3 13 0 18 9 15 8 -2 22 -6 31 -10z
m-338 -40 c-6 -7 -20 -14 -31 -16 -12 -2 -23 -9 -26 -17 -3 -9 2 -11 17 -6 23
7 28 -4 9 -23 -14 -14 -48 -16 -48 -4 0 5 -9 17 -19 29 -24 25 -14 43 30 52
48 10 83 2 68 -15z m206 16 c4 -6 2 -17 -4 -23 -10 -13 -5 -52 9 -72 13 -18
22 -138 11 -144 -19 -12 0 -48 35 -64 22 -11 34 -24 34 -37 0 -11 -6 -19 -12
-17 -22 4 -10 -95 13 -115 12 -11 19 -29 19 -55 1 -36 18 -73 35 -73 14 0 55
-42 55 -55 0 -20 -56 -26 -94 -10 -37 16 -165 14 -221 -3 -29 -8 -30 -10 -26
-63 4 -71 40 -124 111 -167 l54 -32 106 6 c174 10 237 -27 210 -127 -6 -22
-27 -52 -55 -78 -38 -35 -51 -41 -89 -41 -82 0 -98 8 -151 76 -27 35 -61 78
-73 94 -13 17 -30 30 -38 30 -12 0 -12 -5 1 -31 9 -17 15 -40 13 -52 -3 -20
-8 -22 -61 -19 -38 1 -65 -3 -79 -12 -15 -11 -27 -12 -45 -5 -13 5 -40 9 -60
9 l-35 0 7 -47 c9 -59 11 -63 38 -64 15 0 17 -2 7 -6 -8 -3 -20 -12 -26 -19
-9 -11 -22 -12 -58 -5 -26 5 -50 12 -53 15 -12 12 17 100 41 126 13 14 27 42
30 63 l7 38 -28 -18 c-15 -10 -44 -32 -63 -50 -46 -43 -124 -83 -161 -83 -31
0 -69 17 -82 38 -4 6 -13 12 -19 12 -17 0 -1 -56 27 -98 29 -43 32 -83 8 -108
-17 -16 -18 -15 -35 22 -35 79 -40 102 -45 237 l-5 138 46 46 c25 25 43 49 40
54 -3 5 2 12 10 15 18 7 47 -12 43 -28 -4 -18 167 -78 222 -78 19 0 54 11 77
25 39 23 45 32 64 94 11 37 20 75 20 83 0 20 -40 37 -73 31 -19 -4 -29 0 -33
11 -4 10 -13 14 -24 11 -20 -6 -29 10 -25 47 4 36 63 90 92 83 12 -3 25 -1 28
5 3 5 16 10 27 10 12 0 19 3 15 6 -7 7 1 17 71 94 28 31 52 62 52 68 0 6 9 16
21 22 38 21 70 123 43 134 -9 4 -13 13 -10 23 3 10 0 29 -7 43 -11 21 -10 30
7 63 20 38 30 45 41 27z m115 -26 c0 -8 -4 -12 -10 -9 -13 8 -13 -20 -1 -43
22 -41 34 -95 19 -86 -4 3 -8 12 -8 20 0 9 -11 30 -25 48 -14 18 -25 40 -25
48 0 12 25 31 48 37 1 1 2 -6 2 -15z m-334 -70 c-19 -11 -25 -19 -17 -23 13
-8 -28 -31 -56 -31 -13 0 -13 3 -3 15 7 8 18 15 24 15 6 0 17 9 24 20 7 11 22
20 35 20 20 -1 20 -2 -7 -16z m39 -43 c-6 -11 -63 -41 -77 -41 -19 0 -6 17 25
33 36 18 61 22 52 8z m280 -79 c-6 -7 -35 18 -35 31 0 5 9 2 20 -8 11 -10 18
-20 15 -23z m30 17 c11 -17 -1 -21 -15 -4 -8 9 -8 15 -2 15 6 0 14 -5 17 -11z
m-333 -21 c-3 -14 -2 -19 6 -14 7 4 17 4 22 1 14 -9 -7 -45 -26 -45 -8 0 -19
-10 -24 -22 -11 -27 -35 -58 -44 -58 -14 0 -4 20 30 61 l36 43 -23 8 c-33 13
-35 16 -13 33 28 21 43 19 36 -7z m894 -13 c12 -67 -12 -99 -68 -87 -24 5 -34
53 -13 65 9 5 26 20 38 33 28 32 35 30 43 -11z m-626 -45 c0 -5 -2 -10 -4 -10
-3 0 -8 5 -11 10 -3 6 -1 10 4 10 6 0 11 -4 11 -10z m-1153 -50 c2 -28 1 -29
-22 -18 -29 13 -31 23 -7 37 25 15 27 14 29 -19z m108 10 c-3 -5 -11 -10 -16
-10 -6 0 -7 5 -4 10 3 6 11 10 16 10 6 0 7 -4 4 -10z m2721 -5 c3 -8 -3 -34
-15 -58 -25 -52 -26 -65 -6 -87 9 -10 19 -34 22 -54 l6 -36 -51 0 c-28 0 -57
-2 -64 -5 -19 -8 -58 64 -58 108 0 45 24 106 33 83 13 -34 29 -17 22 24 l-7
40 56 0 c41 0 58 -4 62 -15z m-1064 -90 c2 -19 1 -32 -3 -27 -12 11 -19 62 -9
62 4 0 10 -16 12 -35z m-887 5 c-3 -5 -11 -10 -16 -10 -6 0 -7 5 -4 10 3 6 11
10 16 10 6 0 7 -4 4 -10z m-155 -90 c-20 -13 -33 -13 -25 0 3 6 14 10 23 10
15 0 15 -2 2 -10z m-580 -10 c0 -13 -28 -25 -38 -16 -3 4 0 11 8 16 20 13 30
12 30 0z m1891 -43 c-16 -16 -26 0 -10 19 9 11 15 12 17 4 2 -6 -1 -17 -7 -23z
m-1410 6 c-20 -37 -40 -58 -47 -50 -4 4 5 21 21 37 33 34 40 38 26 13z m49 3
c0 -3 -4 -8 -10 -11 -5 -3 -10 -1 -10 4 0 6 5 11 10 11 6 0 10 -2 10 -4z
m2024 -61 c-4 -8 -8 -15 -10 -15 -2 0 -4 7 -4 15 0 8 4 15 10 15 5 0 7 -7 4
-15z m-3344 -125 c0 -5 -2 -10 -4 -10 -3 0 -8 5 -11 10 -3 6 -1 10 4 10 6 0
11 -4 11 -10z m2516 -37 c-10 -10 -19 5 -10 18 6 11 8 11 12 0 2 -7 1 -15 -2
-18z m-2376 -43 c27 0 25 -9 -7 -42 -31 -33 -43 -35 -43 -9 0 11 -4 23 -10 26
-14 9 -12 21 7 40 15 15 17 15 25 1 5 -9 18 -16 28 -16z m560 10 c0 -5 -5 -10
-11 -10 -5 0 -7 5 -4 10 3 6 8 10 11 10 2 0 4 -4 4 -10z m2080 1 c0 -6 -4 -13
-10 -16 -5 -3 -10 1 -10 9 0 9 5 16 10 16 6 0 10 -4 10 -9z m-78 -16 c-1 -5
-9 -10 -17 -10 -8 0 -33 -16 -55 -36 -38 -34 -40 -35 -40 -13 0 12 -4 25 -10
29 -5 3 -2 14 8 26 14 16 27 19 67 17 28 -2 49 -7 47 -13z m-2102 -15 c0 -5
-4 -10 -10 -10 -5 0 -10 5 -10 10 0 6 5 10 10 10 6 0 10 -4 10 -10z m1961 -63
c-16 -16 -26 0 -10 19 9 11 15 12 17 4 2 -6 -1 -17 -7 -23z m-2551 3 c0 -5 -5
-10 -11 -10 -5 0 -7 5 -4 10 3 6 8 10 11 10 2 0 4 -4 4 -10z m180 -71 c0 -5
-6 -9 -14 -9 -15 0 -30 -27 -27 -47 3 -17 -11 -16 -35 2 -17 13 -17 14 -1 15
19 0 23 15 7 25 -15 9 -2 25 21 25 10 0 19 5 19 11 0 8 5 8 15 -1 8 -7 15 -16
15 -21z m2360 21 c0 -5 -2 -10 -4 -10 -3 0 -8 5 -11 10 -3 6 -1 10 4 10 6 0
11 -4 11 -10z m455 -20 c16 13 45 7 45 -10 0 -5 -22 -10 -50 -10 -46 0 -60 7
-43 23 3 4 12 2 20 -4 10 -9 17 -8 28 1z m-2653 -23 c26 5 30 3 25 -9 -6 -17
22 -35 63 -40 17 -2 25 -9 25 -23 0 -11 -4 -20 -10 -21 -5 0 -25 -4 -42 -8
-33 -8 -42 -19 -23 -31 6 -3 10 -1 10 4 0 6 9 11 20 11 25 0 25 -4 -1 -57 -17
-36 -25 -43 -50 -43 -27 0 -31 4 -33 40 -1 18 -44 26 -59 11 -17 -17 -40 -13
-33 5 4 11 -1 18 -14 21 -12 3 -27 18 -35 33 -13 25 -13 28 4 33 11 2 21 15
23 28 2 17 12 25 36 30 19 4 39 12 45 18 7 7 13 8 15 2 2 -6 17 -8 34 -4z
m2948 -2 c-7 -8 -16 -12 -21 -9 -13 8 -1 24 18 24 13 0 13 -3 3 -15z m-2676
-62 c3 -7 1 -15 -4 -18 -6 -4 -10 -15 -10 -27 0 -16 5 -19 24 -16 17 3 23 1
19 -8 -5 -13 -58 -36 -66 -28 -3 3 -34 -1 -71 -7 -48 -9 -67 -17 -72 -31 -5
-15 -24 -26 -24 -13 0 9 60 105 80 127 64 70 61 69 91 51 16 -10 31 -23 33
-30z m-1114 -1 c0 -5 -9 -17 -20 -27 -14 -13 -17 -22 -10 -29 19 -19 10 -31
-25 -32 -19 0 -35 1 -35 3 0 2 17 24 37 49 36 42 53 54 53 36z m1190 -1 c0
-12 -41 -22 -54 -13 -6 4 3 10 19 13 17 4 31 7 33 8 1 0 2 -3 2 -8z m-1347
-17 c10 -4 17 -14 15 -22 -4 -21 -28 -28 -28 -8 0 9 -7 19 -15 22 -8 4 -15 11
-15 16 0 5 6 7 13 4 6 -3 20 -9 30 -12z m479 -4 c19 0 20 -2 7 -17 -23 -29
-49 -80 -49 -97 0 -8 -7 -31 -16 -49 -16 -33 -16 -35 5 -56 22 -22 29 -61 11
-61 -6 0 -20 5 -33 12 -12 6 -28 14 -36 18 -8 3 -19 15 -25 26 -6 10 -17 23
-23 27 -7 4 -13 15 -13 22 0 17 -37 20 -42 4 -2 -6 -12 -10 -22 -8 -16 4 -15
7 8 29 76 74 95 85 112 62 17 -24 46 -8 39 21 -5 17 -2 26 9 30 9 4 16 16 16
28 0 15 4 19 16 15 9 -3 25 -6 36 -6z m1911 -70 c4 -16 -19 -50 -26 -39 -10
16 -23 67 -19 77 5 17 38 -11 45 -38z m-2143 18 c0 -16 -46 -38 -78 -38 -30 0
-19 18 22 36 39 17 56 17 56 2z m2990 -9 c0 -6 -4 -7 -10 -4 -5 3 -10 11 -10
16 0 6 5 7 10 4 6 -3 10 -11 10 -16z m-2940 -13 c0 -2 -7 -6 -15 -10 -8 -3
-15 -1 -15 4 0 6 7 10 15 10 8 0 15 -2 15 -4z m3005 -27 c9 -13 -15 -70 -26
-64 -19 12 -35 61 -25 77 10 17 37 10 51 -13z m-2059 -11 c-3 -13 -6 -26 -6
-30 0 -5 -18 -8 -41 -8 -28 0 -39 4 -36 13 2 6 10 11 16 9 7 -1 10 2 7 7 -8
12 22 30 48 31 14 0 17 -5 12 -22z m124 -18 c0 -23 -4 -28 -16 -23 -13 5 -15
2 -9 -15 13 -42 -3 -62 -47 -62 -41 0 -51 21 -12 29 20 4 43 29 44 48 0 8 -7
10 -17 6 -17 -6 -17 -6 -1 10 9 10 23 16 30 15 8 -2 12 4 10 16 -2 11 1 15 7
11 6 -3 11 -19 11 -35z m-713 0 c3 -11 14 -20 24 -20 12 0 23 -10 29 -25 7
-18 17 -25 36 -25 37 0 104 -21 104 -33 0 -5 -10 -7 -23 -3 -24 6 -67 -17 -67
-36 0 -6 10 -8 24 -4 16 4 29 0 41 -14 23 -26 11 -40 -34 -40 -31 0 -40 -4
-44 -21 -4 -16 -11 -19 -26 -14 -18 5 -21 2 -21 -24 0 -21 -5 -31 -15 -31 -9
0 -12 6 -9 15 4 8 1 22 -6 30 -7 9 -9 26 -5 45 9 39 -10 40 -30 0 -9 -16 -20
-30 -25 -30 -13 0 -12 10 5 40 19 34 19 50 -2 50 -25 0 -3 18 27 22 14 1 25 8
25 15 0 6 3 15 8 19 18 18 6 46 -28 60 -38 16 -47 44 -14 44 12 0 23 -8 26
-20z m-28 -49 c17 -16 31 -32 31 -35 0 -12 -38 -5 -50 9 -17 21 -44 19 -65 -5
-34 -37 -107 -63 -77 -28 5 7 12 24 14 38 2 20 9 26 36 28 33 3 42 16 20 26
-7 3 3 3 23 1 22 -3 49 -16 68 -34z m211 9 c0 -5 -4 -10 -9 -10 -6 0 -13 5
-16 10 -3 6 1 10 9 10 9 0 16 -4 16 -10z m-375 -10 c-3 -5 -10 -10 -16 -10 -5
0 -9 5 -9 10 0 6 7 10 16 10 8 0 12 -4 9 -10z m735 -10 c13 -9 13 -11 0 -20
-19 -12 -27 -12 -35 0 -7 11 2 30 13 30 4 0 14 -5 22 -10z m-80 -19 c0 -11 9
-21 21 -24 17 -5 20 -11 17 -31 -5 -26 4 -31 40 -27 17 3 15 -35 -4 -64 -10
-15 -21 -22 -31 -18 -10 4 -14 2 -10 -4 10 -16 -3 -43 -20 -43 -12 0 -13 3 -3
15 15 19 3 38 -21 32 -11 -3 -26 1 -33 9 -8 8 -23 14 -34 14 -18 0 -32 18 -32
41 0 5 14 9 30 9 18 0 33 6 36 15 4 8 15 15 25 15 10 0 17 6 15 13 -13 40 -15
67 -6 67 5 0 10 -8 10 -19z m1010 -6 c14 -8 19 -14 13 -15 -7 0 -13 -6 -13
-14 0 -28 -32 -48 -67 -43 -39 7 -40 4 -12 -34 14 -21 32 -31 61 -35 76 -13
143 -102 89 -119 -37 -11 -201 4 -231 22 -40 23 -44 53 -24 154 18 86 19 88
49 92 65 8 111 6 135 -8z m-2113 -11 c4 -12 -45 -29 -55 -20 -2 3 1 13 8 21
14 17 41 17 47 -1z m971 4 c7 -7 12 -20 12 -31 0 -13 -5 -17 -19 -12 -20 6
-51 -17 -51 -38 -1 -22 -58 -70 -76 -63 -13 5 -14 9 -4 21 7 8 21 15 32 15 10
0 21 8 25 18 3 9 15 29 25 44 10 14 18 33 18 42 0 19 21 21 38 4z m1270 -9
c-11 -6 -29 -6 -50 0 -32 9 -31 9 17 10 38 0 46 -2 33 -10z m-2033 -24 c17
-18 25 -37 25 -60 0 -20 5 -35 12 -35 28 0 100 -44 108 -66 12 -31 18 -30 65
11 38 35 39 35 58 16 15 -15 17 -23 8 -39 -9 -16 -23 -22 -64 -24 -54 -3 -55
-5 -46 -53 3 -13 -4 -23 -21 -31 -54 -25 -68 -26 -80 -4 -10 18 -8 26 8 43 27
30 19 87 -12 87 -22 1 -45 16 -61 41 -49 78 -67 99 -85 99 -11 0 -20 2 -20 4
0 43 65 50 105 11z m1049 9 c23 -9 20 -24 -4 -24 -11 0 -20 7 -20 15 0 17 2
18 24 9z m2091 -22 c-8 -8 -25 10 -19 20 4 6 9 5 15 -3 4 -7 6 -15 4 -17z
m-2818 -58 c24 -26 41 -50 36 -54 -4 -5 -30 7 -58 26 -27 18 -54 35 -59 37
-15 5 2 37 20 37 8 0 36 -21 61 -46z m-236 3 c-1 -12 -15 -9 -19 4 -3 6 1 10
8 8 6 -3 11 -8 11 -12z m955 -65 c-3 -5 -16 -12 -28 -15 -22 -6 -22 -6 2 13
25 19 37 20 26 2z m2157 4 c4 -10 0 -12 -14 -9 -22 6 -26 23 -5 23 8 0 16 -6
19 -14z m-1134 -5 c18 -12 7 -28 -24 -33 -18 -4 -29 0 -35 12 -5 10 -6 20 -3
24 9 9 46 7 62 -3z m-1648 -11 c14 -8 18 -17 13 -38 -12 -55 -13 -56 -32 -38
-27 24 -42 20 -53 -14 -6 -16 -15 -30 -20 -30 -5 0 -9 14 -9 30 0 23 4 30 20
30 11 0 20 6 20 13 0 13 28 57 36 57 3 0 14 -5 25 -10z m179 1 c0 -6 -4 -13
-10 -16 -5 -3 -10 1 -10 9 0 9 5 16 10 16 6 0 10 -4 10 -9z m285 -11 c8 -24
-1 -40 -21 -40 -13 0 -13 3 2 18 16 16 16 17 1 20 -10 2 -15 8 -12 13 10 15
23 10 30 -11z m2955 -73 l-25 -19 -3 27 c-4 34 16 49 37 28 13 -14 13 -18 -9
-36z m-570 18 c0 -8 -4 -15 -10 -15 -5 0 -10 7 -10 15 0 8 5 15 10 15 6 0 10
-7 10 -15z m-2343 -10 c8 -24 -3 -29 -27 -12 -15 11 -18 16 -8 20 22 9 28 8
35 -8z m2866 -4 c5 -1 6 -9 2 -19 -3 -13 3 -25 20 -38 25 -19 34 -44 15 -44
-5 0 -19 9 -30 20 -14 14 -28 18 -45 14 -19 -5 -25 -2 -25 10 0 9 -8 16 -18
16 -9 0 -23 9 -29 19 -15 24 2 31 62 26 22 -2 44 -4 48 -4z m284 -76 c2 -10 9
-23 16 -27 7 -5 0 -8 -19 -8 -27 0 -33 4 -39 33 -8 33 -8 52 1 77 6 16 33 -35
41 -75z m-3660 2 c-11 -34 -29 -23 -32 21 -1 26 0 28 20 18 20 -9 21 -14 12
-39z m83 43 c0 -5 -2 -10 -4 -10 -3 0 -8 5 -11 10 -3 6 -1 10 4 10 6 0 11 -4
11 -10z m2814 -6 c4 -10 1 -14 -6 -12 -15 5 -23 28 -10 28 5 0 13 -7 16 -16z
m-3047 -34 c2 -8 -1 -22 -6 -29 -8 -12 -13 -11 -29 10 -15 17 -17 26 -9 31 18
12 41 5 44 -12z m603 16 c0 -3 -4 -8 -10 -11 -5 -3 -10 -1 -10 4 0 6 5 11 10
11 6 0 10 -2 10 -4z m205 -16 c-10 -11 -20 -18 -23 -16 -5 6 21 35 32 36 5 0
1 -9 -9 -20z m2565 -15 c0 -11 7 -14 25 -9 18 4 25 2 25 -9 0 -20 -42 -29 -76
-17 -26 10 -27 11 -8 30 23 23 34 25 34 5z m-70 -9 c0 -8 -4 -17 -9 -21 -12
-7 -24 12 -16 25 9 15 25 12 25 -4z m-2570 -6 c-8 -5 -19 -10 -25 -10 -5 0 -3
5 5 10 8 5 20 10 25 10 6 0 3 -5 -5 -10z m2508 -72 c17 -17 15 -58 -2 -58 -13
0 -26 28 -26 58 0 15 12 16 28 0z m219 -20 c-3 -12 -1 -30 4 -40 8 -15 7 -24
-5 -37 -9 -10 -13 -21 -9 -25 11 -11 -27 -36 -51 -35 -17 0 -16 2 7 11 29 10
39 48 12 48 -10 0 -15 10 -15 28 0 36 14 57 31 46 12 -6 12 -5 0 9 -12 15 -11
17 9 17 18 0 21 -4 17 -22z m251 -2 c15 4 35 11 44 16 18 8 58 -8 58 -24 0 -5
7 -8 15 -8 7 0 18 -7 23 -16 5 -9 21 -16 36 -16 26 0 26 -1 22 -57 -6 -82 -20
-110 -64 -128 -45 -17 -54 -50 -16 -59 32 -8 30 -19 -6 -34 -22 -9 -29 -17
-25 -30 3 -11 -1 -20 -10 -24 -11 -4 -15 -15 -13 -33 3 -25 -1 -28 -27 -31
-16 -1 -37 2 -45 7 -13 9 -12 12 4 24 18 13 18 14 -4 30 -12 8 -19 20 -15 26
3 6 1 11 -4 11 -6 0 -11 7 -11 16 0 8 -5 12 -11 9 -11 -7 -55 32 -46 41 3 3
14 0 26 -7 28 -18 34 -8 16 28 -17 35 -49 48 -66 27 -13 -16 -49 -19 -49 -4 0
5 6 13 14 17 8 4 16 17 18 28 2 11 10 19 17 17 8 -2 11 7 9 25 -2 17 -9 28
-18 28 -8 0 -16 9 -18 19 -3 14 0 17 12 13 22 -9 20 0 -2 12 -13 7 -27 6 -45
-4 -22 -11 -28 -11 -38 1 -20 24 -3 46 28 37 53 -14 86 -9 98 13 6 12 17 29
24 38 11 14 15 14 28 1 9 -10 24 -13 41 -9z m-865 -35 c6 -6 16 -11 23 -11 7
0 14 -3 16 -8 2 -4 16 -17 32 -30 64 -50 -42 -7 -117 47 -26 19 -47 38 -47 42
0 9 76 -23 93 -40z m-2553 26 c0 -7 9 -23 20 -35 11 -12 20 -24 20 -27 0 -11
-24 -4 -42 12 -19 17 -25 63 -8 63 6 0 10 -6 10 -13z m2670 -27 c0 -14 -28 -1
-34 16 -4 12 -2 12 14 4 11 -6 20 -15 20 -20z m77 14 c-3 -3 -12 -4 -19 -1 -8
3 -5 6 6 6 11 1 17 -2 13 -5z m-1823 -10 c8 -3 12 -12 9 -20 -3 -8 -1 -14 5
-14 6 0 12 6 15 13 2 6 3 -7 2 -31 -3 -49 12 -52 34 -6 l14 29 8 -25 c59 -204
67 -229 68 -212 1 7 5 11 10 7 5 -3 12 -1 16 5 9 14 21 12 39 -6 14 -14 16
-14 16 0 0 8 -8 19 -17 25 -10 5 -16 12 -13 14 13 13 39 -23 42 -56 1 -20 7
-37 14 -37 6 0 17 -7 24 -15 13 -16 0 -21 -15 -6 -12 12 -91 41 -122 46 -67
10 -152 94 -222 218 -20 35 -20 38 -4 44 10 4 22 12 26 20 9 14 26 17 51 7z
m1803 -31 c21 -10 40 -21 43 -25 3 -3 21 -11 40 -16 l35 -10 -30 -1 c-17 -1
-46 8 -65 19 -19 11 -43 23 -52 26 -10 4 -18 10 -18 15 0 12 4 12 47 -8z
m-2640 -39 c-7 -7 -37 7 -37 17 0 6 9 5 21 -1 11 -7 19 -14 16 -16z m2798 16
c-3 -5 -12 -10 -18 -10 -7 0 -6 4 3 10 19 12 23 12 15 0z m344 -11 c11 7 21 9
21 6 0 -9 -71 -75 -81 -75 -4 0 -14 -3 -23 -6 -26 -10 -18 16 9 28 14 6 25 19
25 28 0 22 12 33 21 19 5 -8 12 -8 28 0z m-189 -59 c0 -5 -9 -10 -21 -10 -11
0 -17 5 -14 10 3 6 13 10 21 10 8 0 14 -4 14 -10z m45 0 c3 -5 -1 -10 -9 -10
-9 0 -16 5 -16 10 0 6 4 10 9 10 6 0 13 -4 16 -10z m185 -41 c0 -4 -7 -9 -15
-13 -9 -3 -15 0 -15 8 0 7 7 13 15 13 8 0 15 -4 15 -8z m-173 -15 c-3 -3 -12
-4 -19 -1 -8 3 -5 6 6 6 11 1 17 -2 13 -5z m143 -43 c0 -6 -5 -13 -12 -17 -6
-4 -8 -3 -4 4 3 5 0 13 -6 15 -8 3 -6 6 5 6 9 1 17 -3 17 -8z m-435 -49 c-3
-3 -11 0 -18 7 -9 10 -8 11 6 5 10 -3 15 -9 12 -12z m-2180 -27 c-27 -22 -65
-34 -65 -20 0 6 80 45 90 44 3 0 -8 -11 -25 -24z m2680 5 c3 -5 1 -10 -4 -10
-6 0 -11 5 -11 10 0 6 2 10 4 10 3 0 8 -4 11 -10z m-3226 -66 c9 -10 -53 6
-63 17 -6 5 4 5 24 -1 18 -5 35 -12 39 -16z m1176 16 c3 -5 1 -10 -4 -10 -6 0
-11 5 -11 10 0 6 2 10 4 10 3 0 8 -4 11 -10z m135 -33 l35 -18 -63 4 c-38 2
-68 9 -77 18 -14 13 -10 15 27 14 24 -1 59 -9 78 -18z m960 -212 c6 -44 16
-91 21 -103 7 -17 6 -23 -2 -20 -7 2 -19 26 -26 54 -16 55 -39 89 -27 39 7
-28 6 -29 -11 -15 -10 8 -16 10 -12 3 4 -7 1 -27 -7 -45 l-14 -33 -11 29 c-6
16 -14 27 -17 24 -2 -3 0 -17 5 -32 9 -21 8 -26 -4 -26 -9 0 -15 9 -15 23 0
13 -6 31 -13 42 -19 24 -40 10 -33 -21 4 -15 2 -24 -5 -24 -7 0 -9 -11 -5 -30
3 -19 1 -30 -5 -30 -7 0 -9 -11 -7 -25 3 -14 1 -25 -3 -25 -15 0 -32 117 -18
125 5 4 9 15 9 26 0 10 7 19 15 19 28 0 11 33 -33 60 -12 8 -13 13 -5 16 8 4
10 17 6 37 l-6 32 27 -38 c14 -21 26 -44 26 -52 0 -8 5 -17 10 -20 6 -3 10 0
10 7 0 7 5 20 10 28 8 13 11 13 19 1 7 -10 11 -6 16 18 7 33 14 38 32 20 9 -9
13 -2 18 25 l7 36 18 -23 c10 -13 23 -57 30 -102z m90 103 c0 -6 6 -19 14 -27
11 -13 11 -21 0 -46 l-12 -30 -11 28 c-14 35 -14 87 -1 87 6 0 10 -5 10 -12z
m-2066 -33 c9 -14 13 -25 8 -25 -5 0 -14 11 -20 25 -6 14 -10 25 -8 25 2 0 11
-11 20 -25z m1735 -47 c8 -18 19 -36 25 -40 8 -6 7 -11 -2 -16 -7 -5 -12 -13
-11 -18 1 -5 1 -17 0 -28 -1 -14 -4 -16 -14 -7 -8 6 -17 8 -20 4 -4 -3 -13 0
-22 7 -12 10 -15 10 -15 0 0 -8 -8 -10 -23 -6 -21 5 -23 3 -20 -27 4 -25 2
-29 -6 -17 -6 8 -11 28 -11 44 0 16 -9 36 -21 47 -20 18 -20 18 0 28 11 6 29
11 41 11 12 0 28 7 36 15 8 8 22 11 31 8 12 -5 15 -2 10 10 -12 31 8 17 22
-15z m-139 -113 c14 -19 14 -19 -2 -6 -10 7 -18 18 -18 24 0 6 1 8 3 6 1 -2 9
-13 17 -24z m-1520 -25 c0 -13 -1 -13 -10 0 -5 8 -10 22 -10 30 0 13 1 13 10
0 5 -8 10 -22 10 -30z m1523 -3 c7 4 6 -1 -2 -10 -13 -16 -15 -16 -32 -1 -11
10 -19 27 -19 38 1 19 2 19 21 -7 12 -15 26 -24 32 -20z m247 22 c0 -5 -4 -9
-10 -9 -5 0 -10 7 -10 16 0 8 5 12 10 9 6 -3 10 -10 10 -16z m-379 -49 c1 8 5
-12 8 -45 6 -55 -4 -105 -21 -105 -3 0 -12 14 -20 30 -13 31 -27 39 -29 18 -1
-24 -9 -62 -14 -67 -3 -2 -5 10 -5 27 0 17 -4 34 -10 37 -14 9 -12 56 5 85
l14 25 1 -23 c0 -21 2 -22 15 -8 8 8 15 24 15 36 l0 22 20 -23 c14 -18 20 -20
21 -9z m325 -146 c-22 -16 -70 -19 -61 -4 7 11 67 29 75 23 3 -3 -4 -11 -14
-19z m332 -6 c7 -7 12 -23 12 -37 0 -21 -2 -23 -10 -11 -7 11 -10 7 -10 -17 0
-18 -4 -33 -9 -33 -5 0 -9 25 -8 55 1 57 5 63 25 43z m-1845 -108 c37 0 38 -1
35 -32 -3 -33 -3 -33 -58 -33 -43 0 -55 -4 -58 -17 -2 -11 11 -23 43 -37 50
-22 64 -43 44 -67 -10 -12 -23 -14 -56 -9 -40 6 -43 5 -43 -17 0 -35 11 -45
69 -62 29 -9 59 -20 66 -26 19 -16 22 -7 45 126 16 92 25 123 41 137 43 35 69
11 88 -83 16 -76 51 -180 61 -180 12 0 27 53 40 138 17 117 51 161 99 130 32
-20 34 -43 11 -95 -12 -27 -26 -75 -31 -108 -11 -67 -37 -154 -52 -172 -5 -7
-24 -13 -42 -13 -30 0 -33 -3 -39 -37 -3 -21 -6 -51 -6 -66 0 -25 3 -27 23
-20 12 4 37 7 55 6 29 -1 32 1 32 29 l0 31 83 -7 c151 -14 313 -22 509 -25 60
-1 80 -27 51 -69 -10 -15 -20 -40 -23 -56 -6 -36 -29 -46 -37 -17 -6 24 -14
26 -31 9 -18 -18 -15 -25 18 -32 32 -6 39 -26 16 -45 -15 -13 -33 -14 -81 -6
-16 2 -70 10 -119 16 -79 10 -90 10 -98 -5 -12 -22 -25 -20 -31 4 -3 11 -14
20 -24 20 -10 0 -27 6 -38 14 -11 7 -53 16 -93 18 -61 5 -77 2 -96 -13 -34
-27 -44 -24 -48 16 -2 20 -7 36 -12 38 -12 3 -20 -16 -40 -85 -22 -74 -41 -77
-32 -5 4 28 9 70 12 92 3 37 3 38 -7 13 -14 -37 -39 -37 -39 0 0 16 7 70 16
120 l16 92 -31 62 c-17 33 -31 69 -31 80 0 10 -4 18 -9 18 -5 0 -12 -30 -16
-67 -11 -108 -42 -138 -89 -88 -23 25 -23 25 -41 5 -10 -11 -26 -20 -36 -20
-13 0 -19 -11 -24 -42 -8 -48 -31 -98 -45 -98 -20 0 -20 22 0 79 25 75 25 77
0 84 -27 7 -44 -21 -61 -95 -10 -49 -32 -79 -46 -65 -3 4 8 63 23 122 4 16 3
17 -5 5 -17 -27 -61 -170 -61 -198 0 -31 -24 -71 -36 -60 -11 12 16 155 46
239 18 54 23 80 16 91 -7 12 -2 34 19 79 30 67 37 137 21 212 -7 29 -5 41 8
56 15 16 21 17 68 4 29 -7 70 -13 91 -13z m1527 -40 c-6 -12 -14 -19 -17 -17
-2 3 1 15 7 27 6 12 14 19 17 17 2 -3 -1 -15 -7 -27z m323 -32 c21 -22 22 -45
3 -88 l-13 -32 -22 28 c-12 15 -18 30 -15 33 4 3 9 0 11 -7 3 -6 9 -10 14 -6
11 7 12 47 0 60 -4 5 -11 25 -14 44 -6 33 -5 33 6 10 7 -14 20 -33 30 -42z
m-1240 11 c48 1 57 -1 57 -16 0 -13 3 -14 12 -5 7 7 28 12 48 12 86 0 155 -41
166 -98 l6 -29 22 22 c23 23 105 51 161 56 33 3 105 -20 105 -33 0 -5 -17 -26
-37 -48 -37 -39 -73 -53 -73 -27 -1 51 -73 37 -96 -19 -31 -75 -4 -138 58
-132 26 3 32 7 33 30 1 38 24 58 73 65 47 6 94 -17 111 -54 24 -53 1 -173 -36
-187 -49 -19 -73 35 -54 124 17 80 -8 97 -29 19 -9 -33 -18 -43 -48 -56 -36
-15 -103 -14 -144 2 -13 5 -18 2 -18 -12 0 -27 -19 -43 -50 -43 -34 0 -53 21
-78 85 -28 70 -47 73 -38 5 6 -42 4 -56 -10 -71 -19 -21 -64 -25 -95 -8 -11 5
-56 16 -101 24 -86 16 -128 35 -128 62 0 8 11 47 25 85 28 77 31 112 13 169
-8 30 -8 45 1 65 11 24 15 26 49 19 20 -5 63 -7 95 -6z m691 -70 c-3 -5 2 -17
12 -26 15 -16 15 -18 -6 -35 -30 -24 -47 -20 -68 15 -17 28 -16 29 12 53 22
19 31 22 42 13 8 -6 11 -15 8 -20z m529 -84 c4 -8 2 -17 -3 -20 -6 -4 -10 3
-10 14 0 25 6 27 13 6z m-483 -27 c11 -18 20 -41 20 -51 0 -23 26 -32 53 -19
35 17 100 43 103 40 16 -18 -9 -134 -27 -123 -5 4 -10 -6 -10 -22 -1 -15 -2
-37 -3 -48 -1 -11 -8 -20 -16 -20 -15 0 -18 36 -7 98 7 38 -18 35 -43 -5 -25
-41 -25 -54 0 -85 27 -34 25 -40 -11 -59 -64 -33 -109 6 -85 73 11 33 12 50 1
109 -8 38 -19 82 -25 98 -8 23 -8 31 2 38 21 13 27 10 48 -24z m520 -52 c0
-13 -3 -38 -6 -55 -6 -30 -8 -31 -25 -15 -22 20 -25 35 -6 32 7 -2 13 11 15
35 3 40 22 42 22 3z m-21 -136 c0 -10 -3 -8 -9 5 -12 27 -12 43 0 25 5 -8 9
-22 9 -30z m27 -74 c-10 -39 -23 -31 -18 10 3 24 8 32 14 26 6 -6 8 -22 4 -36z
m-15 -121 c-4 -17 -7 -14 -14 12 -5 18 -6 40 -2 50 7 15 9 13 15 -12 3 -16 4
-39 1 -50z m19 -76 c0 -22 -21 -22 -28 1 -3 7 0 10 7 6 6 -4 11 -2 11 3 0 6 2
11 5 11 3 0 5 -9 5 -21z m-1260 -29 c0 -5 -5 -10 -11 -10 -5 0 -7 5 -4 10 3 6
8 10 11 10 2 0 4 -4 4 -10z m1250 -30 c0 -11 5 -20 10 -20 16 0 12 -27 -5 -34
-10 -3 -15 1 -15 12 0 9 -3 27 -6 40 -4 13 -2 22 5 22 6 0 11 -9 11 -20z m30
-122 c0 -23 -13 -23 -34 1 -17 18 -16 19 8 17 18 -1 26 -7 26 -18z m-13 -63
c6 -14 9 -43 6 -66 -4 -28 -2 -44 7 -49 7 -4 9 -13 5 -19 -12 -21 -35 8 -33
43 0 17 -2 50 -7 74 -8 46 3 56 22 17z"/>
<path d="M2310 4820 c-17 -11 -13 -15 23 -24 31 -7 37 8 9 23 -11 6 -24 6 -32
1z"/>
<path d="M910 3956 c0 -19 14 -28 34 -20 25 10 19 34 -9 34 -15 0 -25 -6 -25
-14z"/>
<path d="M1075 3920 c-4 -6 5 -10 19 -10 14 0 26 5 26 10 0 6 -9 10 -19 10
-11 0 -23 -4 -26 -10z"/>
<path d="M1020 3900 c0 -5 7 -10 15 -10 8 0 15 5 15 10 0 6 -7 10 -15 10 -8 0
-15 -4 -15 -10z"/>
<path d="M760 3754 c0 -17 22 -14 28 4 2 7 -3 12 -12 12 -9 0 -16 -7 -16 -16z"/>
<path d="M870 3721 c-23 -6 -23 -8 -5 -12 24 -7 45 -1 45 12 0 10 -4 10 -40 0z"/>
<path d="M1084 3702 c-5 -22 -12 -32 -25 -32 -25 0 -67 -20 -72 -34 -3 -8 5
-11 24 -8 22 3 29 0 29 -12 0 -21 12 -20 42 3 26 21 59 32 107 35 17 1 34 5
38 10 10 10 -17 26 -44 26 -12 0 -25 5 -28 11 -4 5 -12 8 -18 6 -7 -2 -20 2
-29 11 -16 14 -18 12 -24 -16z"/>
<path d="M1005 3481 c-9 -16 17 -61 37 -61 18 0 24 23 12 54 -7 17 -39 22 -49
7z"/>
<path d="M908 3473 c7 -3 16 -2 19 1 4 3 -2 6 -13 5 -11 0 -14 -3 -6 -6z"/>
<path d="M1195 3440 c3 -5 10 -10 16 -10 5 0 9 5 9 10 0 6 -7 10 -16 10 -8 0
-12 -4 -9 -10z"/>
<path d="M927 3413 c-7 -35 -1 -40 23 -25 11 7 27 12 35 12 20 0 19 10 -2 26
-29 22 -50 17 -56 -13z"/>
<path d="M982 3378 c-13 -13 -16 -38 -4 -38 13 1 42 27 42 39 0 15 -23 14 -38
-1z"/>
<path d="M1210 3296 c0 -9 5 -16 10 -16 6 0 10 4 10 9 0 6 -4 13 -10 16 -5 3
-10 -1 -10 -9z"/>
<path d="M1305 3301 c-3 -6 3 -14 12 -20 14 -8 15 -12 6 -22 -9 -9 -15 -9 -27
0 -11 10 -17 6 -30 -20 -22 -44 -20 -52 8 -45 15 4 26 1 29 -7 3 -8 10 -6 20
8 13 16 19 18 35 8 20 -12 29 -9 50 19 12 15 12 22 1 48 -14 29 -36 44 -26 16
3 -8 0 -17 -8 -19 -17 -7 -25 1 -25 25 0 19 -34 26 -45 9z"/>
<path d="M947 3223 c-4 -7 0 -21 10 -32 l17 -21 23 22 c28 26 29 38 3 38 -13
0 -18 -5 -14 -15 4 -9 0 -15 -9 -15 -9 0 -17 8 -19 18 -2 12 -6 13 -11 5z"/>
<path d="M1153 3193 c-24 -2 -43 -8 -43 -12 0 -16 53 -31 86 -25 27 5 34 3 34
-10 0 -9 7 -16 15 -16 12 0 11 7 -7 35 -13 19 -27 34 -33 33 -5 -1 -29 -3 -52
-5z"/>
<path d="M1410 3189 c0 -5 5 -7 10 -4 6 3 10 8 10 11 0 2 -4 4 -10 4 -5 0 -10
-5 -10 -11z"/>
<path d="M1032 3173 c4 -21 36 -29 51 -14 9 9 8 14 -3 21 -25 16 -52 12 -48
-7z"/>
<path d="M4161 3514 c0 -11 3 -14 6 -6 3 7 2 16 -1 19 -3 4 -6 -2 -5 -13z"/>
<path d="M3400 3105 c0 -8 5 -15 10 -15 6 0 10 7 10 15 0 8 -4 15 -10 15 -5 0
-10 -7 -10 -15z"/>
<path d="M1067 2903 c-4 -3 -7 -11 -7 -17 0 -6 5 -5 12 2 6 6 9 14 7 17 -3 3
-9 2 -12 -2z"/>
<path d="M1080 2835 c0 -8 7 -15 15 -15 8 0 15 7 15 15 0 8 -7 15 -15 15 -8 0
-15 -7 -15 -15z"/>
<path d="M1371 2884 c0 -11 3 -14 6 -6 3 7 2 16 -1 19 -3 4 -6 -2 -5 -13z"/>
<path d="M1344 2835 c-9 -22 1 -29 15 -11 8 10 9 16 1 21 -5 3 -13 -1 -16 -10z"/>
<path d="M490 2701 c0 -13 27 -21 45 -15 25 10 17 24 -15 24 -16 0 -30 -4 -30
-9z"/>
<path d="M839 2605 c-1 -14 -2 -31 -3 -37 -1 -7 7 -14 17 -16 11 -2 17 3 17
17 0 11 5 23 10 26 20 12 10 35 -15 35 -20 0 -25 -5 -26 -25z"/>
<path d="M480 2410 c0 -5 5 -10 11 -10 5 0 7 5 4 10 -3 6 -8 10 -11 10 -2 0
-4 -4 -4 -10z"/>
<path d="M1826 2095 c2 -11 4 -25 4 -32 0 -6 8 -11 19 -10 15 1 17 4 7 19 -6
10 -14 18 -18 18 -3 0 -8 6 -11 13 -2 6 -3 3 -1 -8z"/>
<path d="M2045 1880 c3 -5 11 -10 16 -10 6 0 7 5 4 10 -3 6 -11 10 -16 10 -6
0 -7 -4 -4 -10z"/>
<path d="M3241 1638 c0 -7 4 -22 9 -33 8 -18 9 -17 9 7 1 15 -3 30 -9 33 -5 3
-10 0 -9 -7z"/>
<path d="M3080 1590 c0 -5 5 -10 11 -10 5 0 7 5 4 10 -3 6 -8 10 -11 10 -2 0
-4 -4 -4 -10z"/>
<path d="M2440 520 c-17 -11 -8 -23 14 -18 9 2 12 8 8 15 -5 8 -13 9 -22 3z"/>
<path d="M2298 513 c7 -3 16 -2 19 1 4 3 -2 6 -13 5 -11 0 -14 -3 -6 -6z"/>
<path d="M2250 1048 c0 -18 -57 -35 -84 -25 -15 6 -36 -11 -36 -29 0 -6 20
-19 44 -28 46 -17 60 -35 50 -61 -4 -10 -20 -15 -50 -15 -42 0 -44 -1 -44 -29
0 -35 5 -39 62 -47 l43 -6 13 58 c21 87 26 159 14 180 -10 17 -11 17 -12 2z"/>
<path d="M2355 998 c-4 -9 -5 -29 -3 -45 l3 -28 19 28 c18 26 18 29 3 44 -15
15 -17 15 -22 1z"/>
<path d="M2435 880 c-3 -5 -1 -10 4 -10 6 0 11 5 11 10 0 6 -2 10 -4 10 -3 0
-8 -4 -11 -10z"/>
<path d="M3082 843 c-7 -12 -12 -30 -12 -40 1 -13 5 -11 16 10 8 16 13 34 11
40 -2 7 -9 3 -15 -10z"/>
<path d="M189 4990 c-11 -7 -10 -10 4 -16 10 -4 23 -2 28 3 14 14 -13 24 -32
13z"/>
<path d="M21 4976 c-10 -12 -6 -16 25 -25 40 -11 54 -8 54 14 0 26 -60 34 -79
11z"/>
<path d="M138 4963 c7 -3 16 -2 19 1 4 3 -2 6 -13 5 -11 0 -14 -3 -6 -6z"/>
<path d="M30 4345 c0 -17 22 -35 42 -35 11 0 18 7 18 19 0 13 -9 20 -30 23
-18 3 -30 0 -30 -7z"/>
<path d="M172 4348 c-7 -7 -26 -17 -44 -22 -17 -6 -33 -17 -36 -25 -3 -10 2
-11 18 -6 15 5 25 2 31 -6 6 -10 13 -8 28 10 12 13 21 32 21 43 0 21 -2 22
-18 6z"/>
<path d="M0 4267 c0 -28 3 -35 15 -31 8 4 15 14 15 24 0 10 -7 23 -15 30 -13
11 -15 7 -15 -23z"/>
<path d="M4346 3141 c15 -15 66 -17 71 -3 3 8 -8 12 -38 12 -27 0 -39 -4 -33
-9z"/>
<path d="M4210 3100 c0 -24 35 -28 44 -4 9 23 8 24 -19 24 -18 0 -25 -5 -25
-20z"/>
<path d="M4540 3090 c0 -6 -12 -15 -26 -20 -14 -6 -22 -14 -19 -20 9 -14 22
-12 45 7 21 18 27 43 10 43 -5 0 -10 -5 -10 -10z"/>
<path d="M4570 3048 c-23 -25 -25 -35 -7 -41 6 -2 -5 -9 -26 -16 -37 -13 -38
-13 -22 -37 12 -18 13 -29 5 -43 -7 -13 -7 -22 0 -26 6 -3 13 0 16 8 3 9 19
21 35 27 28 12 29 15 29 81 0 38 -2 69 -5 69 -2 0 -13 -10 -25 -22z"/>
<path d="M4267 3033 c-4 -3 -7 -11 -7 -17 0 -6 5 -5 12 2 6 6 9 14 7 17 -3 3
-9 2 -12 -2z"/>
<path d="M4352 3003 c4 -21 33 -25 33 -3 0 8 -8 16 -18 18 -14 3 -18 -1 -15
-15z"/>
<path d="M4446 2995 c-4 -12 -1 -16 14 -13 24 3 28 22 7 26 -8 2 -17 -4 -21
-13z"/>
<path d="M4262 2989 c2 -7 10 -15 17 -17 8 -3 12 1 9 9 -2 7 -10 15 -17 17 -8
3 -12 -1 -9 -9z"/>
<path d="M4447 2963 c-4 -3 -7 -11 -7 -17 0 -6 5 -5 12 2 6 6 9 14 7 17 -3 3
-9 2 -12 -2z"/>
<path d="M3420 2896 c0 -8 4 -17 9 -20 5 -4 7 3 4 14 -6 23 -13 26 -13 6z"/>
<path d="M4412 2872 c-10 -7 -8 -12 7 -26 17 -15 19 -15 25 -1 13 34 -1 46
-32 27z"/>
<path d="M3566 2841 c-4 -7 -5 -15 -2 -18 9 -9 19 4 14 18 -4 11 -6 11 -12 0z"/>
<path d="M4140 2820 c0 -5 4 -10 9 -10 6 0 13 5 16 10 3 6 -1 10 -9 10 -9 0
-16 -4 -16 -10z"/>
<path d="M3954 2806 c-8 -22 3 -33 18 -18 9 9 9 15 0 24 -9 9 -13 7 -18 -6z"/>
<path d="M3640 2794 c0 -8 5 -12 10 -9 6 4 8 11 5 16 -9 14 -15 11 -15 -7z"/>
<path d="M4040 2779 c0 -5 5 -7 10 -4 6 3 10 8 10 11 0 2 -4 4 -10 4 -5 0 -10
-5 -10 -11z"/>
<path d="M4167 2772 c-22 -24 -21 -32 3 -32 23 0 38 26 23 41 -6 6 -16 3 -26
-9z"/>
<path d="M3875 2728 c-2 -7 -3 -22 -2 -32 1 -12 -8 -25 -23 -33 -17 -8 -20
-13 -9 -13 19 0 33 -26 19 -35 -17 -11 -11 -33 11 -40 32 -10 46 10 25 34 -21
24 -14 54 11 49 10 -2 22 -13 28 -25 5 -13 15 -25 22 -28 21 -8 63 17 63 37 0
24 12 23 35 -2 10 -11 24 -20 32 -20 7 0 13 -4 13 -10 0 -5 7 -10 15 -10 8 0
15 3 15 6 0 11 -23 94 -26 94 -2 0 -15 -5 -29 -12 -19 -9 -28 -9 -37 0 -18 18
-28 15 -28 -8 0 -30 -30 -24 -42 8 -15 40 -83 69 -93 40z"/>
<path d="M3814 2705 c19 -14 36 -12 36 6 0 5 -12 9 -27 9 -27 -1 -27 -1 -9
-15z"/>
<path d="M4175 2660 c3 -5 8 -10 11 -10 2 0 4 5 4 10 0 6 -5 10 -11 10 -5 0
-7 -4 -4 -10z"/>
<path d="M4205 2650 c3 -5 8 -10 11 -10 2 0 4 5 4 10 0 6 -5 10 -11 10 -5 0
-7 -4 -4 -10z"/>
<path d="M4453 2643 c-15 -5 -17 -23 -4 -23 5 0 11 7 15 15 3 8 4 15 3 14 -1
0 -8 -3 -14 -6z"/>
<path d="M3810 2625 c0 -8 5 -15 10 -15 6 0 10 7 10 15 0 8 -4 15 -10 15 -5 0
-10 -7 -10 -15z"/>
<path d="M4263 2633 c14 -4 17 -11 13 -29 -8 -29 -2 -30 25 -5 l21 19 -20 11
c-12 6 -29 10 -39 10 -17 -1 -17 -2 0 -6z"/>
<path d="M4580 2630 c0 -5 5 -10 10 -10 6 0 10 5 10 10 0 6 -4 10 -10 10 -5 0
-10 -4 -10 -10z"/>
<path d="M3770 2595 c0 -8 5 -15 10 -15 6 0 10 7 10 15 0 8 -4 15 -10 15 -5 0
-10 -7 -10 -15z"/>
<path d="M4380 2600 c0 -5 4 -10 9 -10 6 0 13 5 16 10 3 6 -1 10 -9 10 -9 0
-16 -4 -16 -10z"/>
<path d="M3980 2572 c0 -13 12 -22 35 -29 32 -10 35 -9 35 8 0 12 -10 23 -26
29 -36 14 -44 13 -44 -8z"/>
<path d="M4308 2571 c-23 -23 -23 -27 2 -34 13 -3 24 1 30 13 22 41 0 54 -32
21z"/>
<path d="M4591 2564 c0 -11 3 -14 6 -6 3 7 2 16 -1 19 -3 4 -6 -2 -5 -13z"/>
<path d="M3830 2419 c0 -5 5 -7 10 -4 6 3 10 8 10 11 0 2 -4 4 -10 4 -5 0 -10
-5 -10 -11z"/>
</g>
</svg>
